<svg width="891" height="404" viewBox="0 0 891 404" fill="none" xmlns="http://www.w3.org/2000/svg">
<rect width="891" height="404" rx="15" fill="#0D1117"/>
<path d="M239.96 228.32L223 178.08H228.84L241.64 216.4L253.72 178.16H259.24L242.52 228.32H239.96ZM305.72 228V178.08H336.28V183.04H311V199.44H331.88V204.56H311V223.04H336.04V228H305.72ZM385 178.16H390.44L411.4 215.12V178.16H417.48V178.72C417.16 179.04 416.947 179.387 416.84 179.76C416.787 180.133 416.76 180.773 416.76 181.68V228H412.36L390.36 188.8V228H385V178.16ZM465.32 228.08V178.16H476.92C481.187 178.16 484.493 178.747 486.84 179.92C489.24 181.093 491.267 182.773 492.92 184.96C496.173 189.333 497.8 195.467 497.8 203.36C497.587 208.427 496.733 212.827 495.24 216.56C493.8 220.24 491.507 223.093 488.36 225.12C485.267 227.093 481.133 228.08 475.96 228.08H465.32ZM470.6 223.68H475.72C481.427 223.68 485.613 221.973 488.28 218.56C490.947 215.093 492.253 210.133 492.2 203.68C492.147 197.173 490.92 192.08 488.52 188.4C486.173 184.72 482.2 182.88 476.6 182.88H470.6V223.68ZM561 228.88C555.293 228.88 550.893 226.667 547.8 222.24C544.707 217.813 543.16 211.52 543.16 203.36C543.16 195.467 544.707 189.253 547.8 184.72C550.893 180.133 555.293 177.84 561 177.84C566.707 177.84 571.107 180.133 574.2 184.72C577.293 189.253 578.84 195.467 578.84 203.36C578.84 211.52 577.293 217.813 574.2 222.24C571.107 226.667 566.707 228.88 561 228.88ZM561 224C564.787 224 567.747 222.213 569.88 218.64C572.013 215.067 573.08 209.973 573.08 203.36C573.08 197.067 572.013 192.053 569.88 188.32C567.747 184.587 564.787 182.72 561 182.72C557.213 182.72 554.253 184.587 552.12 188.32C549.987 192.053 548.92 197.067 548.92 203.36C548.92 209.973 549.987 215.067 552.12 218.64C554.253 222.213 557.213 224 561 224ZM625.48 228V178.16H640.2C646.067 178.16 650.28 179.467 652.84 182.08C655.453 184.693 656.76 188.133 656.76 192.4C656.76 194.267 656.333 196.133 655.48 198C654.68 199.867 653.507 201.493 651.96 202.88C650.467 204.267 648.68 205.227 646.6 205.76L658.12 228H651.88L640.84 206H631.16V228H625.48ZM631.16 201.04H640.84C644.413 201.04 647 200.267 648.6 198.72C650.2 197.12 651 195.013 651 192.4C651 189.893 650.2 187.787 648.6 186.08C647 184.32 644.413 183.44 640.84 183.44H631.16V201.04Z" fill="white"/>
</svg>
